<svg width="25" height="24" viewBox="0 0 25 24" fill="none" xmlns="http://www.w3.org/2000/svg">
<path id="beatstarz-logo" d="M22.5444 11.9599L23.8352 13.2076L24.3999 13.7711C24.5209 13.8919 24.5612 14.0126 24.5612 14.1736V15.7836V21.5795C24.5612 21.7405 24.5209 21.8613 24.3999 21.982C23.8286 22.5118 23.277 23.0622 22.7461 23.6322C22.6251 23.753 22.5444 23.7932 22.3831 23.7932H0.843579H0.601562V0.207031H0.924251H10.4032H22.3024C22.5041 0.207031 22.6251 0.247281 22.7864 0.408279L24.4402 2.05851C24.4806 2.09876 24.5209 2.13901 24.5612 2.21951C24.6016 2.25976 24.6016 2.34025 24.6016 2.42075V9.94741C24.6016 10.0682 24.5612 10.1889 24.4402 10.2694C23.8824 10.7858 23.3442 11.3228 22.8268 11.8794C22.7058 11.7989 22.6251 11.8794 22.5444 11.9599ZM19.5192 19.8085C19.5192 19.7683 19.5192 19.728 19.5595 19.728V15.0591C19.5595 14.9383 19.5192 14.8981 19.4385 14.8176L18.7125 14.1334C18.5915 14.0126 18.5108 13.9724 18.3495 13.9724H15.4453H15.1629C15.2032 14.0931 15.2032 14.1736 15.2436 14.2944L16.3327 17.4741C16.3327 17.5143 16.373 17.5948 16.373 17.6753L12.2587 15.1396L8.14442 17.6753L8.10408 17.6351L9.63686 13.0869L5.56291 10.0682V19.8085H19.5192ZM5.56291 9.98766H5.84526H10.4436C10.6856 9.98766 10.6856 9.98766 10.7663 9.74616L12.1377 5.64071C12.178 5.56021 12.178 5.47971 12.2587 5.35897L13.8318 9.94741H13.9528H18.4301C18.5511 9.94741 18.6318 9.90716 18.7125 9.82666L19.4385 9.10217C19.4789 9.06192 19.5192 9.02167 19.5595 8.94117C19.5999 8.86067 19.5999 8.82042 19.5999 8.73992V4.27223V4.07098C19.5595 4.07098 19.5595 4.03073 19.5192 4.03073H5.84526H5.72425H5.68391L5.64358 4.07098L5.56291 9.98766Z" fill="#E0E5E7"/>
</svg>
