<svg width="17" height="16" viewBox="0 0 17 16" fill="none" xmlns="http://www.w3.org/2000/svg">
<g id="Frame">
<path id="Vector" d="M8.5153 2.66683C5.56978 2.66683 3.18197 5.05464 3.18197 8.00016H5.18197C5.91835 8.00016 6.5153 8.5971 6.5153 9.3335V12.6668C6.5153 13.4032 5.91835 14.0002 5.18197 14.0002H3.18197C2.44559 14.0002 1.84863 13.4032 1.84863 12.6668V8.00016C1.84863 4.31826 4.8334 1.3335 8.5153 1.3335C12.1972 1.3335 15.182 4.31826 15.182 8.00016V12.6668C15.182 13.4032 14.585 14.0002 13.8486 14.0002H11.8486C11.1122 14.0002 10.5153 13.4032 10.5153 12.6668V9.3335C10.5153 8.5971 11.1122 8.00016 11.8486 8.00016H13.8486C13.8486 5.05464 11.4608 2.66683 8.5153 2.66683ZM3.18197 9.3335V12.6668H5.18197V9.3335H3.18197ZM11.8486 9.3335V12.6668H13.8486V9.3335H11.8486Z" fill="white"/>
</g>
</svg>
