<svg width="16" height="16" viewBox="0 0 16 16" fill="none" xmlns="http://www.w3.org/2000/svg">
<g id="Frame">
<path id="Vector" d="M7.99967 14.6663C4.31777 14.6663 1.33301 11.6815 1.33301 7.99967C1.33301 4.31777 4.31777 1.33301 7.99967 1.33301C11.6815 1.33301 14.6663 4.31777 14.6663 7.99967C14.6663 11.6815 11.6815 14.6663 7.99967 14.6663ZM7.99967 13.333C10.9452 13.333 13.333 10.9452 13.333 7.99967C13.333 5.05415 10.9452 2.66634 7.99967 2.66634C5.05415 2.66634 2.66634 5.05415 2.66634 7.99967C2.66634 10.9452 5.05415 13.333 7.99967 13.333ZM7.33301 4.66634H8.66634V5.99967H7.33301V4.66634ZM7.33301 7.33301H8.66634V11.333H7.33301V7.33301Z" fill="#236C63"/>
</g>
</svg>
