<svg width="25" height="24" viewBox="0 0 25 24" fill="none" xmlns="http://www.w3.org/2000/svg">
<path id="instagram-logo" d="M7.63173 0.0839254C6.35492 0.144166 5.48299 0.347926 4.72074 0.647447C3.93186 0.954889 3.26321 1.36745 2.59792 2.03513C1.93264 2.70281 1.52295 3.37194 1.21767 4.16202C0.922225 4.92594 0.722063 5.79859 0.665663 7.07611C0.609262 8.35363 0.596782 8.76428 0.603022 12.023C0.609262 15.2817 0.623662 15.6902 0.685583 16.9704C0.746543 18.2469 0.949585 19.1186 1.24911 19.8811C1.55703 20.67 1.96912 21.3384 2.63704 22.0039C3.30497 22.6694 3.97362 23.0782 4.76562 23.3839C5.52883 23.6789 6.40172 23.88 7.67901 23.9359C8.95631 23.9918 9.36743 24.0048 12.6252 23.9986C15.883 23.9923 16.2932 23.9779 17.5731 23.9172C18.853 23.8565 19.7202 23.652 20.4829 23.3539C21.2718 23.0453 21.9407 22.6339 22.6057 21.9658C23.2708 21.2976 23.6802 20.628 23.9853 19.8374C24.2809 19.0742 24.4818 18.2013 24.5373 16.925C24.5932 15.6441 24.6064 15.2352 24.6001 11.9769C24.5939 8.71868 24.5793 8.31019 24.5185 7.03051C24.4578 5.75083 24.2545 4.88178 23.9553 4.11882C23.6469 3.32994 23.2353 2.66201 22.5676 1.99601C21.8999 1.33001 21.2298 0.920808 20.4395 0.616487C19.6758 0.321046 18.8034 0.119686 17.5261 0.0644854C16.2488 0.00928517 15.8377 -0.00487488 12.5787 0.00136514C9.31967 0.00760516 8.91167 0.0215252 7.63173 0.0839254ZM7.77189 21.7771C6.60188 21.7262 5.9666 21.5318 5.54323 21.3691C4.98259 21.1531 4.58322 20.892 4.1613 20.4742C3.73937 20.0563 3.48017 19.6555 3.26129 19.0961C3.09689 18.6727 2.89889 18.0381 2.84416 16.8681C2.78464 15.6036 2.77216 15.2239 2.7652 12.0201C2.75824 8.81636 2.77048 8.43715 2.82592 7.17211C2.87584 6.00307 3.07145 5.36706 3.23393 4.94394C3.44993 4.38258 3.71009 3.98394 4.1289 3.56226C4.5477 3.14058 4.94731 2.8809 5.50723 2.66201C5.93012 2.49689 6.56468 2.30057 7.73421 2.24489C8.99975 2.18489 9.37895 2.17289 12.5823 2.16593C15.7856 2.15897 16.1657 2.17097 17.4318 2.22665C18.6008 2.27753 19.2371 2.47121 19.6597 2.63465C20.2206 2.85066 20.6197 3.1101 21.0414 3.52962C21.4631 3.94914 21.723 4.3473 21.9419 4.90842C22.1072 5.3301 22.3036 5.96443 22.3588 7.13467C22.419 8.4002 22.4327 8.77964 22.4384 11.9827C22.4442 15.1857 22.4329 15.5661 22.3775 16.8307C22.3264 18.0007 22.1324 18.6362 21.9695 19.0601C21.7535 19.6205 21.4931 20.0201 21.074 20.4415C20.655 20.863 20.2559 21.1226 19.6957 21.3415C19.2733 21.5064 18.638 21.7032 17.4694 21.7589C16.2039 21.8184 15.8247 21.8309 12.6202 21.8378C9.41567 21.8448 9.03767 21.8318 7.77213 21.7771M17.5546 5.58642C17.5551 5.87125 17.64 6.14954 17.7987 6.38609C17.9573 6.62265 18.1826 6.80684 18.4459 6.91538C18.7092 7.02391 18.9989 7.05192 19.2781 6.99585C19.5574 6.93978 19.8137 6.80216 20.0148 6.60039C20.2158 6.39862 20.3525 6.14176 20.4075 5.8623C20.4626 5.58285 20.4335 5.29334 20.324 5.03041C20.2145 4.76747 20.0295 4.54291 19.7923 4.38514C19.5552 4.22736 19.2766 4.14345 18.9918 4.14402C18.6099 4.14478 18.244 4.29716 17.9745 4.56765C17.705 4.83814 17.554 5.20459 17.5546 5.58642ZM6.44012 12.012C6.44684 15.4152 9.21071 18.1677 12.6132 18.1613C16.0157 18.1548 18.7702 15.3912 18.7638 11.988C18.7573 8.58475 15.9927 5.83147 12.5897 5.83819C9.18671 5.84491 6.43364 8.60924 6.44012 12.012ZM8.60158 12.0076C8.60002 11.2165 8.83309 10.4427 9.27133 9.78399C9.70956 9.12531 10.3333 8.61137 11.0636 8.30717C11.7939 8.00296 12.5981 7.92216 13.3743 8.07496C14.1506 8.22777 14.8641 8.60733 15.4246 9.16565C15.9851 9.72396 16.3675 10.436 16.5234 11.2116C16.6793 11.9872 16.6017 12.7917 16.3003 13.5232C15.999 14.2547 15.4876 14.8804 14.8306 15.3213C14.1737 15.7621 13.4008 15.9983 12.6096 15.9998C12.0843 16.0009 11.5639 15.8985 11.0782 15.6985C10.5924 15.4985 10.1508 15.2047 9.77865 14.834C9.40646 14.4632 9.11094 14.0228 8.90897 13.5379C8.70701 13.0529 8.60256 12.533 8.60158 12.0076Z" fill="#E0E5E7"/>
</svg>
