<svg width="16" height="16" viewBox="0 0 16 16" fill="none" xmlns="http://www.w3.org/2000/svg">
<g id="Frame">
<path id="Vector" d="M10.6667 5.33301V6.66634H8.66667V9.66634C8.66667 10.5868 7.92047 11.333 7 11.333C6.07953 11.333 5.33333 10.5868 5.33333 9.66634C5.33333 8.74587 6.07953 7.99967 7 7.99967C7.11413 7.99967 7.2256 8.01114 7.33333 8.03301V5.33301H10V2.66634H3.33333V13.333H12.6667V5.33301H10.6667ZM2 1.99421C2 1.62904 2.29833 1.33301 2.66567 1.33301H10.6667L13.9998 4.66634L14 13.9947C14 14.3656 13.7034 14.6663 13.3377 14.6663H2.66227C2.29651 14.6663 2 14.3628 2 14.0051V1.99421Z" fill="white"/>
</g>
</svg>
