<svg width="800" height="118" viewBox="0 0 800 118" fill="none" xmlns="http://www.w3.org/2000/svg">
<path fill-rule="evenodd" clip-rule="evenodd" d="M0 0.5C266.64 0.5 533.359 0.5 800 0.5C800 13.499 800 99.3009 800 112.3C798.021 112.049 796.81 110.79 794.5 111.3C792.427 111.758 790.102 114.636 786.5 113.3C785.137 112.794 785.555 111.758 783.5 111.3C778.611 117.721 765.713 116.743 757 114.8C751.679 113.613 749.204 117.495 745 116.3C742.856 115.691 742.23 112.966 740 113.8C737.152 114.536 737.046 116.154 733 116.3C732.62 115.831 728.857 112.431 728.5 112.3C725.916 111.352 721.938 113.288 720 111.8C719.235 111.213 718.018 108.621 717.5 107.8C714.162 109.796 704.635 112.509 698.5 110.8C696.221 110.165 694.973 106.784 691.5 107.8C691 108.3 690.5 108.8 690 109.3C686.334 109.3 682.666 109.3 679 109.3C676.646 109.989 672.109 111.712 670 112.3C667.5 111.967 665 111.633 662.5 111.3C658.461 112.64 658.715 116.181 651.5 116.3C649.303 113.291 647.427 114.874 643 113.8C642.762 113.742 642.018 112.716 641.5 112.8C640.23 113.006 639.467 114.904 637 114.3C634.544 113.699 632.979 110.866 631 110.3C628.542 109.597 625.047 111.47 622.5 109.8C621.217 108.958 619.95 106.452 618.5 105.8C616.834 105.633 615.166 105.467 613.5 105.3C612.834 104.633 612.166 103.967 611.5 103.3C609.392 102.726 609.076 104.448 608 104.8C605.5 104.8 603 104.8 600.5 104.8C599.287 105.172 598.176 106.738 596 106.3C593.523 105.802 592.648 103.49 591 102.8C588.5 102.967 586 103.133 583.5 103.3C582.847 103.139 580.955 101.904 580.5 101.8C578.004 101.23 574.029 103.254 572.5 103.8C570.167 103.8 567.833 103.8 565.5 103.8C562.116 104.801 557.419 104.886 554 105.8C551 105.967 548 106.133 545 106.3C542.924 107.11 539.666 109.228 537.5 109.8C532.913 111.011 523.442 105.277 520 105.8C511.449 107.1 504.805 111.492 497 112.8C492.428 113.566 488.295 110.091 483 111.8C480.205 112.702 479.311 114.217 475 114.3C474.918 114.19 460.672 105.351 460.5 105.3C457.924 104.533 450.85 106.433 447 105.8C445.256 105.513 445.834 103.769 443.5 104.3C443 104.8 442.5 105.3 442 105.8C438 105.8 434 105.8 430 105.8C429.5 106.467 429 107.133 428.5 107.8C425.857 109.422 421.627 108.554 419 107.8C416.334 107.8 413.666 107.8 411 107.8C408.152 106.898 397.328 103.088 395 106.8C393.825 108.327 394.081 110.218 393.5 111.3C392.91 111.701 392.659 111.687 391.5 111.8C389.3 109.678 383.601 113.588 381.5 112.8C380.029 112.248 379.953 110.909 377 110.8C377 111.133 377 111.467 377 111.8C377.376 112.336 377.301 112.273 377.5 113.3C376.476 113.656 375.163 113.797 373.5 113.8C372.927 113.072 372.499 112.7 372 111.8C368.337 114.691 355.6 119.178 348 116.8C346.379 116.293 346.316 114.146 343.5 114.8C343.167 115.133 342.833 115.467 342.5 115.8C338.334 115.633 334.166 115.467 330 115.3C328.495 115.909 324.433 118.775 321 117.8C320.5 117.3 320 116.8 319.5 116.3C317 116.133 314.5 115.967 312 115.8C311.5 115.3 311 114.8 310.5 114.3C307.814 113.254 305.318 114.284 303 113.3C301.358 112.603 300.379 110.821 298.5 110.3C294.334 110.133 290.166 109.967 286 109.8C285.049 109.517 284.137 108.065 283.5 107.8C280.667 107.8 277.833 107.8 275 107.8C273.456 109.763 268.424 113.029 266 113.8C261 113.633 256 113.467 251 113.3C250.667 113.8 244.333 115.8 244 116.3C244 116.3 235.539 111.506 232 109.8C229.459 108.575 228.34 111.346 226 110.8C222.661 110.022 218.59 107.132 214.5 106.8C210.859 111.878 205.933 107.047 201 106.3C196.103 105.558 192.704 111.07 187 108.8C184.368 107.752 180.596 104.39 175.5 105.8C172.346 106.673 167 110 165 111.5C165 111.5 160.123 109.786 158 109.3C152.353 108.007 145 110.8 145 110.8C142.958 110.287 141.72 108.482 140 107.8C137.414 106.775 135.393 107.077 133 105.8C132.333 105.133 131.667 104.467 131 103.8C127 103.8 123 103.8 119 103.8C118.212 103.534 117.289 102.065 116.5 101.8C114.212 101.031 100.708 101.082 99 101.8C97.717 102.339 95.279 104.319 93.5 104.8C90.894 105.505 89.987 103.96 87.5 103.8C86.515 105.386 85.223 106.484 84 107.8C78.458 107.853 73.294 107.182 69 106.8C67.945 108.518 67.311 109.206 64.5 109.3C63.487 108.24 63.029 107.975 61 107.8C60.014 109.224 59.494 109.307 57 109.3C55.007 107.333 53.357 108.79 50 107.8C48.147 107.254 42.788 102.804 40 103.8C39.346 104.033 37.982 105.661 37 105.8C34.471 106.158 33.179 102.233 30 103.8C26.112 105.716 23.286 109.453 18 109.8C11.278 103.82 5.213 110.842 0 111.8C0 98.9679 0 13.332 0 0.5Z" fill="#E0E5E7"/>
</svg>
