<svg width="16" height="16" viewBox="0 0 16 16" fill="none" xmlns="http://www.w3.org/2000/svg">
<g id="Frame">
<path id="Vector" d="M8.00359 1.33301C10.2127 1.33301 12.0036 3.12387 12.0036 5.33301V5.99967H14.6703V7.33301H13.8923L13.3879 13.3883C13.3591 13.7339 13.0702 13.9997 12.7235 13.9997H3.28367C2.93695 13.9997 2.6481 13.7339 2.61931 13.3883L2.11425 7.33301H1.33691V5.99967H4.00358V5.33301C4.00358 3.12387 5.79444 1.33301 8.00359 1.33301ZM12.5543 7.33301H3.45225L3.89691 12.6663H12.1096L12.5543 7.33301ZM8.67026 8.66634V11.333H7.33693V8.66634H8.67026ZM6.00358 8.66634V11.333H4.67025V8.66634H6.00358ZM11.3369 8.66634V11.333H10.0036V8.66634H11.3369ZM8.00359 2.66634C6.57545 2.66634 5.40953 3.78899 5.34018 5.19991L5.33691 5.33301V5.99967H10.6703V5.33301C10.6703 3.90487 9.54759 2.73895 8.13666 2.66961L8.00359 2.66634Z" fill="white"/>
</g>
</svg>
