<svg width="25" height="18" viewBox="0 0 25 18" fill="none" xmlns="http://www.w3.org/2000/svg">
<g id="youtube-logo">
<path d="M24.1002 3.24375C23.8242 2.21493 23.011 1.40457 21.9784 1.12961C20.1067 0.629883 12.6016 0.629883 12.6016 0.629883C12.6016 0.629883 5.09659 0.629883 3.2249 1.12961C2.19236 1.40457 1.37906 2.21493 1.10309 3.24375C0.601562 5.10867 0.601562 8.99952 0.601562 8.99952C0.601562 8.99952 0.601562 12.8905 1.10309 14.7554C1.37906 15.7841 2.19236 16.5945 3.2249 16.8694C5.09659 17.3693 12.6016 17.3693 12.6016 17.3693C12.6016 17.3693 20.1067 17.3693 21.9784 16.8694C23.011 16.5945 23.8242 15.7841 24.1002 14.7554C24.6016 12.8905 24.6016 8.99952 24.6016 8.99952C24.6016 8.99952 24.6016 5.10867 24.1002 3.24375Z" fill="#E0E5E7"/>
<path d="M10.2016 12.5866V5.41255L16.4368 8.99962L10.2016 12.5866Z" fill="#13050B"/>
</g>
</svg>
